<svg xmlns="http://www.w3.org/2000/svg" width="1200" height="630" viewBox="0 0 1200 630" role="img" aria-label="KELL.OS 1.0 wordmark. ORIGIN era.">
  <rect width="1200" height="630" fill="#008080"/>
  <rect x="180" y="95" width="840" height="440" fill="#c0c0c0"/>
  <rect x="180" y="95" width="840" height="6" fill="#ffffff"/>
  <rect x="180" y="95" width="6" height="440" fill="#ffffff"/>
  <rect x="1014" y="95" width="6" height="440" fill="#000000"/>
  <rect x="180" y="529" width="840" height="6" fill="#000000"/>
  <rect x="192" y="107" width="816" height="48" fill="#000080"/>
  <text x="208" y="140" fill="#ffffff" font-family="Tahoma, Geneva, sans-serif" font-size="28" font-weight="700">KELL.OS 1.0</text>
  <text x="780" y="140" fill="#ffffff" font-family="Tahoma, Geneva, sans-serif" font-size="18">ORIGIN era</text>
  <rect x="192" y="167" width="816" height="350" fill="#ffffff"/>
  <g transform="translate(250,240) scale(8)" fill="#000080">
    <rect x="1" y="2" width="2" height="12"/>
    <rect x="3" y="7" width="2" height="2"/>
    <rect x="5" y="2" width="2" height="4"/>
    <rect x="5" y="10" width="2" height="4"/>
    <rect x="9" y="2" width="2" height="12"/>
    <rect x="11" y="2" width="5" height="2"/>
    <rect x="11" y="7" width="4" height="2"/>
    <rect x="11" y="12" width="5" height="2"/>
    <rect x="18" y="2" width="2" height="12"/>
    <rect x="20" y="12" width="5" height="2"/>
    <rect x="27" y="2" width="2" height="12"/>
    <rect x="29" y="12" width="5" height="2"/>
  </g>
  <g transform="translate(250,240) scale(8)" fill="#000000">
    <rect x="36" y="11" width="2" height="2"/>
    <rect x="41" y="2" width="6" height="2"/>
    <rect x="41" y="12" width="6" height="2"/>
    <rect x="39" y="4" width="2" height="8"/>
    <rect x="47" y="4" width="2" height="8"/>
    <rect x="51" y="2" width="7" height="2"/>
    <rect x="51" y="2" width="2" height="5"/>
    <rect x="51" y="6" width="7" height="2"/>
    <rect x="56" y="8" width="2" height="4"/>
    <rect x="51" y="12" width="7" height="2"/>
  </g>
  <text x="250" y="430" fill="#000000" font-family="Georgia, 'Times New Roman', serif" font-size="28">Saathvik Kellampalli</text>
  <text x="250" y="470" fill="#000000" font-family="Tahoma, Geneva, sans-serif" font-size="18">Developer portfolio. Honest wordmark  not a product shot.</text>
</svg>
